<svg xmlns="http://www.w3.org/2000/svg" xmlns:xlink="http://www.w3.org/1999/xlink" width="1060" height="514.2"><rect width="1060" height="514.2" rx="5" ry="5" class="a"/><svg y="0%" x="0%"><circle cx="20" cy="20" r="6" fill="#ff5f58"/><circle cx="40" cy="20" r="6" fill="#ffbd2e"/><circle cx="60" cy="20" r="6" fill="#18c132"/></svg><svg height="434.2" viewBox="0 0 100 43.42" width="1000" x="25" xmlns="http://www.w3.org/2000/svg" xmlns:xlink="http://www.w3.org/1999/xlink" y="60"><style>@keyframes j{0%{transform:translateX(-4600px)}2.7%{transform:translateX(-100px)}10.1%{transform:translateX(-4400px)}.9%{transform:translateX(-4200px)}.8%{transform:translateX(-3900px)}5.9%{transform:translateX(-1800px)}10.3%{transform:translateX(-1900px)}50%{transform:translateX(-2100px)}6%{transform:translateX(-4300px)}37.6%{transform:translateX(-4500px)}}.a{fill:#fff}.f,.g{white-space:pre}.f{fill:#25bc24;font-weight:700}.g{fill:#000}</style><g font-family="Monaco,Consolas,Menlo,'Bitstream Vera Sans Mono','Powerline Symbols',monospace" font-size="1.67"><defs><symbol id="1"><text y="1.67" class="f">$</text></symbol><symbol id="2"><text y="1.67" class="f">$</text><text x="2.004" y="1.67" class="g">k</text></symbol><symbol id="3"><text y="1.67" class="f">$</text><text x="2.004" y="1.67" class="g">ku</text></symbol><symbol id="4"><text y="1.67" class="f">$</text><text x="2.004" y="1.67" class="g">kub</text></symbol><symbol id="5"><text y="1.67" class="f">$</text><text x="2.004" y="1.67" class="g">kube</text></symbol><symbol id="6"><text y="1.67" class="f">$</text><text x="2.004" y="1.67" class="g">kubec</text></symbol><symbol id="7"><text y="1.67" class="f">$</text><text x="2.004" y="1.67" class="g">kubect</text></symbol><symbol id="8"><text y="1.67" class="f">$</text><text x="2.004" y="1.67" class="g">kubectl</text></symbol><symbol id="9"><text y="1.67" class="f">$</text><text x="2.004" y="1.67" class="g">kubectl</text><text x="10.02" y="1.67" class="g">g</text></symbol><symbol id="10"><text y="1.67" class="f">$</text><text x="2.004" y="1.67" class="g">kubectl</text><text x="10.02" y="1.67" class="g">gp</text></symbol><symbol id="11"><text y="1.67" class="f">$</text><text x="2.004" y="1.67" class="g">kubectl</text><text x="10.02" y="1.67" class="g">gpu</text></symbol><symbol id="12"><text y="1.67" class="f">$</text><text x="2.004" y="1.67" class="g">kubectl</text><text x="10.02" y="1.67" class="g">gpu-</text></symbol><symbol id="13"><text y="1.67" class="f">$</text><text x="2.004" y="1.67" class="g">kubectl</text><text x="10.02" y="1.67" class="g">gpu-t</text></symbol><symbol id="14"><text y="1.67" class="f">$</text><text x="2.004" y="1.67" class="g">kubectl</text><text x="10.02" y="1.67" class="g">gpu-to</text></symbol><symbol id="15"><text y="1.67" class="f">$</text><text x="2.004" y="1.67" class="g">kubectl</text><text x="10.02" y="1.67" class="g">gpu-top</text></symbol><symbol id="16"><text y="1.67" class="g">NODE</text><text x="14.028" y="1.67" class="g">NAMESPACE</text><text x="26.052" y="1.67" class="g">POD</text><text x="47.094" y="1.67" class="g">GPU</text><text x="59.118" y="1.67" class="g">UTIL</text><text x="66.132" y="1.67" class="g">MEM</text><text x="70.14" y="1.67" class="g">USED</text><text x="77.154" y="1.67" class="g">MEM</text><text x="81.162" y="1.67" class="g">TOTAL</text><text x="89.178" y="1.67" class="g">TEMP</text><text x="96.192" y="1.67" class="g">POWE</text></symbol><symbol id="17"><text y="1.67" class="g">R</text></symbol><symbol id="18"><text y="1.67" class="g">gpu-node-01</text><text x="14.028" y="1.67" class="g">ml-team</text><text x="26.052" y="1.67" class="g">train-resnet-001</text><text x="47.094" y="1.67" class="g">A100-40GB</text><text x="59.118" y="1.67" class="g">100%</text><text x="66.132" y="1.67" class="g">36.1</text><text x="71.142" y="1.67" class="g">GiB</text><text x="77.154" y="1.67" class="g">40.0</text><text x="82.164" y="1.67" class="g">GiB</text><text x="89.178" y="1.67" class="g">64°C</text><text x="96.192" y="1.67" class="g">296W</text></symbol><symbol id="19"><text y="1.67" class="g">gpu-node-01</text><text x="14.028" y="1.67" class="g">inference</text><text x="26.052" y="1.67" class="g">inference-moderate</text><text x="47.094" y="1.67" class="g">A100-40GB</text><text x="59.118" y="1.67" class="g">23%</text><text x="66.132" y="1.67" class="g">1.1</text><text x="70.14" y="1.67" class="g">GiB</text><text x="77.154" y="1.67" class="g">40.0</text><text x="82.164" y="1.67" class="g">GiB</text><text x="89.178" y="1.67" class="g">41°C</text><text x="96.192" y="1.67" class="g">53W</text></symbol><symbol id="20"><text y="1.67" class="g">gpu-node-02</text><text x="14.028" y="1.67" class="g">inference</text><text x="26.052" y="1.67" class="g">vllm-idle-7b</text><text x="47.094" y="1.67" class="g">A100-40GB</text><text x="59.118" y="1.67" class="g">0%</text><text x="66.132" y="1.67" class="g">36.7</text><text x="71.142" y="1.67" class="g">GiB</text><text x="77.154" y="1.67" class="g">40.0</text><text x="82.164" y="1.67" class="g">GiB</text><text x="89.178" y="1.67" class="g">37°C</text><text x="96.192" y="1.67" class="g">51W</text></symbol><symbol id="21"><text y="1.67" class="g">gpu-node-03</text><text x="14.028" y="1.67" class="g">dev</text><text x="26.052" y="1.67" class="g">notebook-alice</text><text x="47.094" y="1.67" class="g">A100-40GB</text><text x="59.118" y="1.67" class="g">0%</text><text x="66.132" y="1.67" class="g">518</text><text x="70.14" y="1.67" class="g">MiB</text><text x="77.154" y="1.67" class="g">40.0</text><text x="82.164" y="1.67" class="g">GiB</text><text x="89.178" y="1.67" class="g">36°C</text><text x="96.192" y="1.67" class="g">46W</text></symbol><symbol id="22"><text y="1.67" class="f">$</text><text x="2.004" y="1.67" class="g">kubectl</text><text x="10.02" y="1.67" class="g">gpu-top</text><text x="18.036" y="1.67" class="g">waste</text></symbol><symbol id="23"><text y="1.67" class="g">Sampling</text><text x="9.018" y="1.67" class="g">GPU</text><text x="13.026" y="1.67" class="g">utilization</text><text x="25.05" y="1.67" class="g">for</text><text x="29.058" y="1.67" class="g">60s</text><text x="33.066" y="1.67" class="g">(every</text><text x="40.08" y="1.67" class="g">5s)...</text></symbol><symbol id="24"><text y="1.67" class="g">WASTED</text><text x="7.014" y="1.67" class="g">GPUS:</text><text x="13.026" y="1.67" class="g">2</text><text x="18.036" y="1.67" class="g">EST</text><text x="22.044" y="1.67" class="g">HOURLY:</text><text x="30.06" y="1.67" class="g">$5.00</text><text x="39.078" y="1.67" class="g">EST</text><text x="43.086" y="1.67" class="g">MONTHLY:</text><text x="52.104" y="1.67" class="g">$3600</text></symbol><symbol id="25"><text y="1.67" class="g">NODE</text><text x="14.028" y="1.67" class="g">NAMESPACE</text><text x="30.06" y="1.67" class="g">POD</text><text x="60.12" y="1.67" class="g">GPU</text><text x="74.148" y="1.67" class="g">AVG</text><text x="78.156" y="1.67" class="g">UTIL</text><text x="85.17" y="1.67" class="g">AVG</text><text x="89.178" y="1.67" class="g">MEM</text><text x="96.192" y="1.67" class="g">EST</text></symbol><symbol id="26"><text y="1.67" class="g">$/MO</text><text x="6.012" y="1.67" class="g">REASON</text></symbol><symbol id="27"><text y="1.67" class="g">gpu-node-02</text><text x="14.028" y="1.67" class="g">inference</text><text x="30.06" y="1.67" class="g">vllm-idle-7b</text><text x="60.12" y="1.67" class="g">A100-40GB</text><text x="78.156" y="1.67" class="g">0.0%</text><text x="86.172" y="1.67" class="g">91.8%</text><text x="98.196" y="1.67" class="g">$1</text></symbol><symbol id="28"><text y="1.67" class="g">800</text><text x="5.01" y="1.67" class="g">compute-idle</text></symbol><symbol id="29"><text y="1.67" class="g">gpu-node-03</text><text x="14.028" y="1.67" class="g">dev</text><text x="30.06" y="1.67" class="g">notebook-alice</text><text x="60.12" y="1.67" class="g">A100-40GB</text><text x="78.156" y="1.67" class="g">0.0%</text><text x="87.174" y="1.67" class="g">1.3%</text><text x="98.196" y="1.67" class="g">$1</text></symbol><symbol id="30"><text y="1.67" class="g">800</text><text x="5.01" y="1.67" class="g">idle</text></symbol><symbol id="a"><path fill="transparent" d="M0 0h100v21H0z"/></symbol><symbol id="b"><path fill="#929292" d="M0 0h1.102v2.171H0z"/></symbol></defs><path class="a" d="M0 0h100v43.42H0z"/><g style="animation-duration:8.011s;animation-iteration-count:infinite;animation-name:j;animation-timing-function:steps(1,end)"><svg width="4700"><svg><use xlink:href="#a"/><use xlink:href="#b" x="-.004"/></svg><svg x="100"><use xlink:href="#a"/><use xlink:href="#b" x="-.004"/></svg><svg x="200"><use xlink:href="#a"/><use xlink:href="#b" x="1.996"/><use xlink:href="#1"/></svg><svg x="300"><use xlink:href="#a"/><use xlink:href="#b" x="2.996"/><use xlink:href="#2"/></svg><svg x="400"><use xlink:href="#a"/><use xlink:href="#b" x="3.996"/><use xlink:href="#3"/></svg><svg x="500"><use xlink:href="#a"/><use xlink:href="#b" x="4.996"/><use xlink:href="#4"/></svg><svg x="600"><use xlink:href="#a"/><use xlink:href="#b" x="5.996"/><use xlink:href="#5"/></svg><svg x="700"><use xlink:href="#a"/><use xlink:href="#b" x="6.996"/><use xlink:href="#6"/></svg><svg x="800"><use xlink:href="#a"/><use xlink:href="#b" x="7.996"/><use xlink:href="#7"/></svg><svg x="900"><use xlink:href="#a"/><use xlink:href="#b" x="8.996"/><use xlink:href="#8"/></svg><svg x="1000"><use xlink:href="#a"/><use xlink:href="#b" x="9.996"/><use xlink:href="#8"/></svg><svg x="1100"><use xlink:href="#a"/><use xlink:href="#b" x="10.996"/><use xlink:href="#9"/></svg><svg x="1200"><use xlink:href="#a"/><use xlink:href="#b" x="11.996"/><use xlink:href="#10"/></svg><svg x="1300"><use xlink:href="#a"/><use xlink:href="#b" x="12.996"/><use xlink:href="#11"/></svg><svg x="1400"><use xlink:href="#a"/><use xlink:href="#b" x="13.996"/><use xlink:href="#12"/></svg><svg x="1500"><use xlink:href="#a"/><use xlink:href="#b" x="14.996"/><use xlink:href="#13"/></svg><svg x="1600"><use xlink:href="#a"/><use xlink:href="#b" x="15.996"/><use xlink:href="#14"/></svg><svg x="1700"><use xlink:href="#a"/><use xlink:href="#b" x="16.996"/><use xlink:href="#15"/></svg><svg x="1800"><use xlink:href="#a"/><use xlink:href="#b" x="-.004" y="2.146"/><use xlink:href="#15"/></svg><svg x="1900"><use xlink:href="#a"/><use xlink:href="#b" x="-.004" y="15.172"/><use xlink:href="#15"/><use xlink:href="#16" y="2.171"/><use xlink:href="#17" y="4.342"/><use xlink:href="#18" y="6.513"/><use xlink:href="#19" y="8.684"/><use xlink:href="#20" y="10.855"/><use xlink:href="#21" y="13.026"/></svg><svg x="2000"><use xlink:href="#a"/><use xlink:href="#b" x="-.004" y="17.343"/><use xlink:href="#15"/><use xlink:href="#16" y="2.171"/><use xlink:href="#17" y="4.342"/><use xlink:href="#18" y="6.513"/><use xlink:href="#19" y="8.684"/><use xlink:href="#20" y="10.855"/><use xlink:href="#21" y="13.026"/></svg><svg x="2100"><use xlink:href="#a"/><use xlink:href="#b" x="1.996" y="17.343"/><use xlink:href="#15"/><use xlink:href="#16" y="2.171"/><use xlink:href="#17" y="4.342"/><use xlink:href="#18" y="6.513"/><use xlink:href="#19" y="8.684"/><use xlink:href="#20" y="10.855"/><use xlink:href="#21" y="13.026"/><use xlink:href="#1" y="17.368"/></svg><svg x="2200"><use xlink:href="#a"/><use xlink:href="#b" x="2.996" y="17.343"/><use xlink:href="#15"/><use xlink:href="#16" y="2.171"/><use xlink:href="#17" y="4.342"/><use xlink:href="#18" y="6.513"/><use xlink:href="#19" y="8.684"/><use xlink:href="#20" y="10.855"/><use xlink:href="#21" y="13.026"/><use xlink:href="#2" y="17.368"/></svg><svg x="2300"><use xlink:href="#a"/><use xlink:href="#b" x="3.996" y="17.343"/><use xlink:href="#15"/><use xlink:href="#16" y="2.171"/><use xlink:href="#17" y="4.342"/><use xlink:href="#18" y="6.513"/><use xlink:href="#19" y="8.684"/><use xlink:href="#20" y="10.855"/><use xlink:href="#21" y="13.026"/><use xlink:href="#3" y="17.368"/></svg><svg x="2400"><use xlink:href="#a"/><use xlink:href="#b" x="4.996" y="17.343"/><use xlink:href="#15"/><use xlink:href="#16" y="2.171"/><use xlink:href="#17" y="4.342"/><use xlink:href="#18" y="6.513"/><use xlink:href="#19" y="8.684"/><use xlink:href="#20" y="10.855"/><use xlink:href="#21" y="13.026"/><use xlink:href="#4" y="17.368"/></svg><svg x="2500"><use xlink:href="#a"/><use xlink:href="#b" x="5.996" y="17.343"/><use xlink:href="#15"/><use xlink:href="#16" y="2.171"/><use xlink:href="#17" y="4.342"/><use xlink:href="#18" y="6.513"/><use xlink:href="#19" y="8.684"/><use xlink:href="#20" y="10.855"/><use xlink:href="#21" y="13.026"/><use xlink:href="#5" y="17.368"/></svg><svg x="2600"><use xlink:href="#a"/><use xlink:href="#b" x="6.996" y="17.343"/><use xlink:href="#15"/><use xlink:href="#16" y="2.171"/><use xlink:href="#17" y="4.342"/><use xlink:href="#18" y="6.513"/><use xlink:href="#19" y="8.684"/><use xlink:href="#20" y="10.855"/><use xlink:href="#21" y="13.026"/><use xlink:href="#6" y="17.368"/></svg><svg x="2700"><use xlink:href="#a"/><use xlink:href="#b" x="7.996" y="17.343"/><use xlink:href="#15"/><use xlink:href="#16" y="2.171"/><use xlink:href="#17" y="4.342"/><use xlink:href="#18" y="6.513"/><use xlink:href="#19" y="8.684"/><use xlink:href="#20" y="10.855"/><use xlink:href="#21" y="13.026"/><use xlink:href="#7" y="17.368"/></svg><svg x="2800"><use xlink:href="#a"/><use xlink:href="#b" x="8.996" y="17.343"/><use xlink:href="#15"/><use xlink:href="#16" y="2.171"/><use xlink:href="#17" y="4.342"/><use xlink:href="#18" y="6.513"/><use xlink:href="#19" y="8.684"/><use xlink:href="#20" y="10.855"/><use xlink:href="#21" y="13.026"/><use xlink:href="#8" y="17.368"/></svg><svg x="2900"><use xlink:href="#a"/><use xlink:href="#b" x="9.996" y="17.343"/><use xlink:href="#15"/><use xlink:href="#16" y="2.171"/><use xlink:href="#17" y="4.342"/><use xlink:href="#18" y="6.513"/><use xlink:href="#19" y="8.684"/><use xlink:href="#20" y="10.855"/><use xlink:href="#21" y="13.026"/><use xlink:href="#8" y="17.368"/></svg><svg x="3000"><use xlink:href="#a"/><use xlink:href="#b" x="10.996" y="17.343"/><use xlink:href="#15"/><use xlink:href="#16" y="2.171"/><use xlink:href="#17" y="4.342"/><use xlink:href="#18" y="6.513"/><use xlink:href="#19" y="8.684"/><use xlink:href="#20" y="10.855"/><use xlink:href="#21" y="13.026"/><use xlink:href="#9" y="17.368"/></svg><svg x="3100"><use xlink:href="#a"/><use xlink:href="#b" x="11.996" y="17.343"/><use xlink:href="#15"/><use xlink:href="#16" y="2.171"/><use xlink:href="#17" y="4.342"/><use xlink:href="#18" y="6.513"/><use xlink:href="#19" y="8.684"/><use xlink:href="#20" y="10.855"/><use xlink:href="#21" y="13.026"/><use xlink:href="#10" y="17.368"/></svg><svg x="3200"><use xlink:href="#a"/><use xlink:href="#b" x="12.996" y="17.343"/><use xlink:href="#15"/><use xlink:href="#16" y="2.171"/><use xlink:href="#17" y="4.342"/><use xlink:href="#18" y="6.513"/><use xlink:href="#19" y="8.684"/><use xlink:href="#20" y="10.855"/><use xlink:href="#21" y="13.026"/><use xlink:href="#11" y="17.368"/></svg><svg x="3300"><use xlink:href="#a"/><use xlink:href="#b" x="13.996" y="17.343"/><use xlink:href="#15"/><use xlink:href="#16" y="2.171"/><use xlink:href="#17" y="4.342"/><use xlink:href="#18" y="6.513"/><use xlink:href="#19" y="8.684"/><use xlink:href="#20" y="10.855"/><use xlink:href="#21" y="13.026"/><use xlink:href="#12" y="17.368"/></svg><svg x="3400"><use xlink:href="#a"/><use xlink:href="#b" x="14.996" y="17.343"/><use xlink:href="#15"/><use xlink:href="#16" y="2.171"/><use xlink:href="#17" y="4.342"/><use xlink:href="#18" y="6.513"/><use xlink:href="#19" y="8.684"/><use xlink:href="#20" y="10.855"/><use xlink:href="#21" y="13.026"/><use xlink:href="#13" y="17.368"/></svg><svg x="3500"><use xlink:href="#a"/><use xlink:href="#b" x="15.996" y="17.343"/><use xlink:href="#15"/><use xlink:href="#16" y="2.171"/><use xlink:href="#17" y="4.342"/><use xlink:href="#18" y="6.513"/><use xlink:href="#19" y="8.684"/><use xlink:href="#20" y="10.855"/><use xlink:href="#21" y="13.026"/><use xlink:href="#14" y="17.368"/></svg><svg x="3600"><use xlink:href="#a"/><use xlink:href="#b" x="16.996" y="17.343"/><use xlink:href="#15"/><use xlink:href="#16" y="2.171"/><use xlink:href="#17" y="4.342"/><use xlink:href="#18" y="6.513"/><use xlink:href="#19" y="8.684"/><use xlink:href="#20" y="10.855"/><use xlink:href="#21" y="13.026"/><use xlink:href="#15" y="17.368"/></svg><svg x="3700"><use xlink:href="#a"/><use xlink:href="#b" x="17.996" y="17.343"/><use xlink:href="#15"/><use xlink:href="#16" y="2.171"/><use xlink:href="#17" y="4.342"/><use xlink:href="#18" y="6.513"/><use xlink:href="#19" y="8.684"/><use xlink:href="#20" y="10.855"/><use xlink:href="#21" y="13.026"/><use xlink:href="#15" y="17.368"/></svg><svg x="3800"><use xlink:href="#a"/><use xlink:href="#b" x="18.996" y="17.343"/><use xlink:href="#15"/><use xlink:href="#16" y="2.171"/><use xlink:href="#17" y="4.342"/><use xlink:href="#18" y="6.513"/><use xlink:href="#19" y="8.684"/><use xlink:href="#20" y="10.855"/><use xlink:href="#21" y="13.026"/><text y="19.038" class="f">$</text><text x="2.004" y="19.038" class="g">kubectl</text><text x="10.02" y="19.038" class="g">gpu-top</text><text x="18.036" y="19.038" class="g">w</text></svg><svg x="3900"><use xlink:href="#a"/><use xlink:href="#b" x="19.996" y="17.343"/><use xlink:href="#15"/><use xlink:href="#16" y="2.171"/><use xlink:href="#17" y="4.342"/><use xlink:href="#18" y="6.513"/><use xlink:href="#19" y="8.684"/><use xlink:href="#20" y="10.855"/><use xlink:href="#21" y="13.026"/><text y="19.038" class="f">$</text><text x="2.004" y="19.038" class="g">kubectl</text><text x="10.02" y="19.038" class="g">gpu-top</text><text x="18.036" y="19.038" class="g">wa</text></svg><svg x="4000"><use xlink:href="#a"/><use xlink:href="#b" x="20.996" y="17.343"/><use xlink:href="#15"/><use xlink:href="#16" y="2.171"/><use xlink:href="#17" y="4.342"/><use xlink:href="#18" y="6.513"/><use xlink:href="#19" y="8.684"/><use xlink:href="#20" y="10.855"/><use xlink:href="#21" y="13.026"/><text y="19.038" class="f">$</text><text x="2.004" y="19.038" class="g">kubectl</text><text x="10.02" y="19.038" class="g">gpu-top</text><text x="18.036" y="19.038" class="g">was</text></svg><svg x="4100"><use xlink:href="#a"/><use xlink:href="#b" x="21.996" y="17.343"/><use xlink:href="#15"/><use xlink:href="#16" y="2.171"/><use xlink:href="#17" y="4.342"/><use xlink:href="#18" y="6.513"/><use xlink:href="#19" y="8.684"/><use xlink:href="#20" y="10.855"/><use xlink:href="#21" y="13.026"/><text y="19.038" class="f">$</text><text x="2.004" y="19.038" class="g">kubectl</text><text x="10.02" y="19.038" class="g">gpu-top</text><text x="18.036" y="19.038" class="g">wast</text></svg><svg x="4200"><use xlink:href="#a"/><use xlink:href="#b" x="22.996" y="17.343"/><use xlink:href="#15"/><use xlink:href="#16" y="2.171"/><use xlink:href="#17" y="4.342"/><use xlink:href="#18" y="6.513"/><use xlink:href="#19" y="8.684"/><use xlink:href="#20" y="10.855"/><use xlink:href="#21" y="13.026"/><use xlink:href="#22" y="17.368"/></svg><svg x="4300"><use xlink:href="#a"/><use xlink:href="#b" x="-.004" y="19.514"/><use xlink:href="#15"/><use xlink:href="#16" y="2.171"/><use xlink:href="#17" y="4.342"/><use xlink:href="#18" y="6.513"/><use xlink:href="#19" y="8.684"/><use xlink:href="#20" y="10.855"/><use xlink:href="#21" y="13.026"/><use xlink:href="#22" y="17.368"/></svg><svg x="4400"><use xlink:href="#a"/><use xlink:href="#b" x="-.004" y="21.685"/><use xlink:href="#15"/><use xlink:href="#16" y="2.171"/><use xlink:href="#17" y="4.342"/><use xlink:href="#18" y="6.513"/><use xlink:href="#19" y="8.684"/><use xlink:href="#20" y="10.855"/><use xlink:href="#21" y="13.026"/><use xlink:href="#22" y="17.368"/><use xlink:href="#23" y="19.539"/></svg><svg x="4500"><use xlink:href="#a"/><use xlink:href="#b" x="-.004" y="39.053"/><use xlink:href="#15"/><use xlink:href="#16" y="2.171"/><use xlink:href="#17" y="4.342"/><use xlink:href="#18" y="6.513"/><use xlink:href="#19" y="8.684"/><use xlink:href="#20" y="10.855"/><use xlink:href="#21" y="13.026"/><use xlink:href="#22" y="17.368"/><use xlink:href="#23" y="19.539"/><use xlink:href="#24" y="21.71"/><use xlink:href="#25" y="26.052"/><use xlink:href="#26" y="28.223"/><use xlink:href="#27" y="30.394"/><use xlink:href="#28" y="32.565"/><use xlink:href="#29" y="34.736"/><use xlink:href="#30" y="36.907"/></svg><svg x="4600"><use xlink:href="#a"/><use xlink:href="#b" x="-.004" y="41.224"/><use xlink:href="#15"/><use xlink:href="#16" y="2.171"/><use xlink:href="#17" y="4.342"/><use xlink:href="#18" y="6.513"/><use xlink:href="#19" y="8.684"/><use xlink:href="#20" y="10.855"/><use xlink:href="#21" y="13.026"/><use xlink:href="#22" y="17.368"/><use xlink:href="#23" y="19.539"/><use xlink:href="#24" y="21.71"/><use xlink:href="#25" y="26.052"/><use xlink:href="#26" y="28.223"/><use xlink:href="#27" y="30.394"/><use xlink:href="#28" y="32.565"/><use xlink:href="#29" y="34.736"/><use xlink:href="#30" y="36.907"/></svg></svg></g></g></svg></svg>