<svg xmlns="http://www.w3.org/2000/svg" xmlns:xlink="http://www.w3.org/1999/xlink" width="1060" height="601.04"><rect width="1060" height="601.04" rx="5" ry="5" class="a"/><svg y="0%" x="0%"><circle cx="20" cy="20" r="6" fill="#ff5f58"/><circle cx="40" cy="20" r="6" fill="#ffbd2e"/><circle cx="60" cy="20" r="6" fill="#18c132"/></svg><svg height="521.04" viewBox="0 0 100 52.104" width="1000" x="25" xmlns="http://www.w3.org/2000/svg" xmlns:xlink="http://www.w3.org/1999/xlink" y="60"><style>@keyframes j{0%{transform:translateX(0)}.02%{transform:translateX(-100px)}2.29%{transform:translateX(-200px)}2.48%{transform:translateX(-300px)}2.67%{transform:translateX(-400px)}2.86%{transform:translateX(-500px)}3.05%{transform:translateX(-600px)}3.23%{transform:translateX(-700px)}3.42%{transform:translateX(-800px)}3.61%{transform:translateX(-900px)}3.8%{transform:translateX(-1000px)}3.99%{transform:translateX(-1100px)}4.18%{transform:translateX(-1200px)}4.37%{transform:translateX(-1300px)}4.56%{transform:translateX(-1400px)}4.74%{transform:translateX(-1500px)}4.93%{transform:translateX(-1600px)}5.12%{transform:translateX(-1700px)}7.16%{transform:translateX(-1900px)}7.17%{transform:translateX(-2000px)}23.01%{transform:translateX(-2100px)}23.2%{transform:translateX(-2200px)}23.39%{transform:translateX(-2300px)}23.57%{transform:translateX(-2400px)}23.76%{transform:translateX(-2500px)}23.95%{transform:translateX(-2600px)}24.14%{transform:translateX(-2700px)}24.33%{transform:translateX(-2800px)}24.52%{transform:translateX(-2900px)}24.71%{transform:translateX(-3000px)}24.89%{transform:translateX(-3100px)}25.08%{transform:translateX(-3200px)}25.27%{transform:translateX(-3300px)}25.46%{transform:translateX(-3400px)}25.65%{transform:translateX(-3500px)}25.84%{transform:translateX(-3600px)}26.03%{transform:translateX(-3700px)}26.22%{transform:translateX(-3800px)}26.41%{transform:translateX(-3900px)}26.59%{transform:translateX(-4000px)}26.78%{transform:translateX(-4100px)}26.97%{transform:translateX(-4200px)}27.16%{transform:translateX(-4300px)}27.35%{transform:translateX(-4400px)}27.54%{transform:translateX(-4500px)}27.73%{transform:translateX(-4600px)}27.92%{transform:translateX(-4700px)}28.11%{transform:translateX(-4800px)}28.29%{transform:translateX(-4900px)}28.48%{transform:translateX(-5000px)}28.67%{transform:translateX(-5100px)}28.86%{transform:translateX(-5200px)}29.05%{transform:translateX(-5300px)}29.24%{transform:translateX(-5400px)}29.43%{transform:translateX(-5500px)}29.62%{transform:translateX(-5600px)}29.81%{transform:translateX(-5700px)}31.67%{transform:translateX(-5800px)}31.68%{transform:translateX(-5900px)}99.99%{transform:translateX(-6000px)}to{transform:translateX(-6100px)}}.a{fill:#fff}.f,.g{white-space:pre}.f{fill:#25bc24;font-weight:700}.g{fill:#000}</style><g font-family="Monaco,Consolas,Menlo,'Bitstream Vera Sans Mono','Powerline Symbols',monospace" font-size="1.67"><defs><symbol id="1"><text y="1.67" class="f">$</text><text x="2.004" y="1.67" class="g">k</text></symbol><symbol id="2"><text y="1.67" class="f">$</text><text x="2.004" y="1.67" class="g">ku</text></symbol><symbol id="3"><text y="1.67" class="f">$</text><text x="2.004" y="1.67" class="g">kub</text></symbol><symbol id="4"><text y="1.67" class="f">$</text><text x="2.004" y="1.67" class="g">kube</text></symbol><symbol id="5"><text y="1.67" class="f">$</text><text x="2.004" y="1.67" class="g">kubec</text></symbol><symbol id="6"><text y="1.67" class="f">$</text><text x="2.004" y="1.67" class="g">kubect</text></symbol><symbol id="7"><text y="1.67" class="f">$</text><text x="2.004" y="1.67" class="g">kubectl</text></symbol><symbol id="8"><text y="1.67" class="f">$</text><text x="2.004" y="1.67" class="g">kubectl</text><text x="10.02" y="1.67" class="g">g</text></symbol><symbol id="9"><text y="1.67" class="f">$</text><text x="2.004" y="1.67" class="g">kubectl</text><text x="10.02" y="1.67" class="g">gp</text></symbol><symbol id="10"><text y="1.67" class="f">$</text><text x="2.004" y="1.67" class="g">kubectl</text><text x="10.02" y="1.67" class="g">gpu</text></symbol><symbol id="11"><text y="1.67" class="f">$</text><text x="2.004" y="1.67" class="g">kubectl</text><text x="10.02" y="1.67" class="g">gpu-</text></symbol><symbol id="12"><text y="1.67" class="f">$</text><text x="2.004" y="1.67" class="g">kubectl</text><text x="10.02" y="1.67" class="g">gpu-t</text></symbol><symbol id="13"><text y="1.67" class="f">$</text><text x="2.004" y="1.67" class="g">kubectl</text><text x="10.02" y="1.67" class="g">gpu-to</text></symbol><symbol id="14"><text y="1.67" class="f">$</text><text x="2.004" y="1.67" class="g">kubectl</text><text x="10.02" y="1.67" class="g">gpu-top</text></symbol><symbol id="15"><text y="1.67" class="g">NODE</text><text x="17.034" y="1.67" class="g">NAMESPACE</text><text x="29.058" y="1.67" class="g">POD</text><text x="46.092" y="1.67" class="g">GPU</text><text x="58.116" y="1.67" class="g">UTIL</text><text x="65.13" y="1.67" class="g">MEM</text><text x="69.138" y="1.67" class="g">USED</text><text x="76.152" y="1.67" class="g">MEM</text><text x="80.16" y="1.67" class="g">TOTAL</text><text x="88.176" y="1.67" class="g">TEMP</text><text x="95.19" y="1.67" class="g">POWER</text></symbol><symbol id="16"><text y="1.67" class="g">129-213-94-129</text><text x="17.034" y="1.67" class="g">dev</text><text x="29.058" y="1.67" class="g">notebook-alice</text><text x="46.092" y="1.67" class="g">A100-40GB</text><text x="58.116" y="1.67" class="g">0%</text><text x="65.13" y="1.67" class="g">518</text><text x="69.138" y="1.67" class="g">MiB</text><text x="76.152" y="1.67" class="g">40.0</text><text x="81.162" y="1.67" class="g">GiB</text><text x="88.176" y="1.67" class="g">36°C</text><text x="95.19" y="1.67" class="g">46W</text></symbol><symbol id="17"><text y="1.67" class="f">$</text><text x="2.004" y="1.67" class="g">kubectl</text><text x="10.02" y="1.67" class="g">gpu-top</text><text x="18.036" y="1.67" class="g">waste</text></symbol><symbol id="18"><text y="1.67" class="f">$</text><text x="2.004" y="1.67" class="g">kubectl</text><text x="10.02" y="1.67" class="g">gpu-top</text><text x="18.036" y="1.67" class="g">waste</text><text x="24.048" y="1.67" class="g">--duration</text></symbol><symbol id="19"><text y="1.67" class="f">$</text><text x="2.004" y="1.67" class="g">kubectl</text><text x="10.02" y="1.67" class="g">gpu-top</text><text x="18.036" y="1.67" class="g">waste</text><text x="24.048" y="1.67" class="g">--duration</text><text x="35.07" y="1.67" class="g">15s</text></symbol><symbol id="20"><text y="1.67" class="g">Sampling</text><text x="9.018" y="1.67" class="g">GPU</text><text x="13.026" y="1.67" class="g">utilization</text><text x="25.05" y="1.67" class="g">for</text><text x="29.058" y="1.67" class="g">15s</text><text x="33.066" y="1.67" class="g">(every</text><text x="40.08" y="1.67" class="g">5s)...</text></symbol><symbol id="21"><text y="1.67" class="g">WASTED</text><text x="7.014" y="1.67" class="g">GPUS:</text><text x="13.026" y="1.67" class="g">1</text><text x="18.036" y="1.67" class="g">EST</text><text x="22.044" y="1.67" class="g">HOURLY:</text><text x="30.06" y="1.67" class="g">$2.50</text><text x="39.078" y="1.67" class="g">EST</text><text x="43.086" y="1.67" class="g">MONTHLY:</text><text x="52.104" y="1.67" class="g">$1800</text></symbol><symbol id="22"><text y="1.67" class="g">NODE</text><text x="16.032" y="1.67" class="g">NAMESPACE</text><text x="32.064" y="1.67" class="g">POD</text><text x="62.124" y="1.67" class="g">GPU</text><text x="76.152" y="1.67" class="g">AVG</text><text x="80.16" y="1.67" class="g">UTIL</text><text x="87.174" y="1.67" class="g">AVG</text><text x="91.182" y="1.67" class="g">MEM</text><text x="98.196" y="1.67" class="g">ES</text></symbol><symbol id="23"><text y="1.67" class="g">T</text><text x="2.004" y="1.67" class="g">$/MO</text><text x="8.016" y="1.67" class="g">REASON</text></symbol><symbol id="24"><text y="1.67" class="g">129-213-94-129</text><text x="16.032" y="1.67" class="g">dev</text><text x="32.064" y="1.67" class="g">notebook-alice</text><text x="62.124" y="1.67" class="g">A100-40GB</text><text x="80.16" y="1.67" class="g">0.0%</text><text x="90.18" y="1.67" class="g">1.3%</text></symbol><symbol id="25"><text x="1.002" y="1.67" class="g">$1800</text><text x="8.016" y="1.67" class="g">idle</text></symbol><symbol id="a"><path fill="transparent" d="M0 0h100v25H0z"/></symbol><symbol id="b"><path fill="#929292" d="M0 0h1.102v2.171H0z"/></symbol></defs><path class="a" d="M0 0h100v52.104H0z"/><g style="animation-duration:22.119961s;animation-iteration-count:infinite;animation-name:j;animation-timing-function:steps(1,end)"><svg width="6200"><svg><use xlink:href="#a"/><use xlink:href="#b" x="-.004"/></svg><svg x="100"><use xlink:href="#a"/><use xlink:href="#b" x="-.004"/></svg><svg x="200"><use xlink:href="#a"/><use xlink:href="#b" x="2.996"/><use xlink:href="#1"/></svg><svg x="300"><use xlink:href="#a"/><use xlink:href="#b" x="3.996"/><use xlink:href="#2"/></svg><svg x="400"><use xlink:href="#a"/><use xlink:href="#b" x="4.996"/><use xlink:href="#3"/></svg><svg x="500"><use xlink:href="#a"/><use xlink:href="#b" x="5.996"/><use xlink:href="#4"/></svg><svg x="600"><use xlink:href="#a"/><use xlink:href="#b" x="6.996"/><use xlink:href="#5"/></svg><svg x="700"><use xlink:href="#a"/><use xlink:href="#b" x="7.996"/><use xlink:href="#6"/></svg><svg x="800"><use xlink:href="#a"/><use xlink:href="#b" x="8.996"/><use xlink:href="#7"/></svg><svg x="900"><use xlink:href="#a"/><use xlink:href="#b" x="9.996"/><use xlink:href="#7"/></svg><svg x="1000"><use xlink:href="#a"/><use xlink:href="#b" x="10.996"/><use xlink:href="#8"/></svg><svg x="1100"><use xlink:href="#a"/><use xlink:href="#b" x="11.996"/><use xlink:href="#9"/></svg><svg x="1200"><use xlink:href="#a"/><use xlink:href="#b" x="12.996"/><use xlink:href="#10"/></svg><svg x="1300"><use xlink:href="#a"/><use xlink:href="#b" x="13.996"/><use xlink:href="#11"/></svg><svg x="1400"><use xlink:href="#a"/><use xlink:href="#b" x="14.996"/><use xlink:href="#12"/></svg><svg x="1500"><use xlink:href="#a"/><use xlink:href="#b" x="15.996"/><use xlink:href="#13"/></svg><svg x="1600"><use xlink:href="#a"/><use xlink:href="#b" x="16.996"/><use xlink:href="#14"/></svg><svg x="1700"><use xlink:href="#a"/><use xlink:href="#b" x="-.004" y="2.146"/><use xlink:href="#14"/></svg><svg x="1800"><use xlink:href="#a"/><use xlink:href="#b" x="64.996" y="2.146"/><use xlink:href="#14"/><text y="3.841" class="g">NODE</text><text x="17.034" y="3.841" class="g">NAMESPACE</text><text x="29.058" y="3.841" class="g">POD</text><text x="46.092" y="3.841" class="g">GPU</text><text x="58.116" y="3.841" class="g">UTIL</text></svg><svg x="1900"><use xlink:href="#a"/><use xlink:href="#b" x="-.004" y="6.488"/><use xlink:href="#14"/><use xlink:href="#15" y="2.171"/><use xlink:href="#16" y="4.342"/></svg><svg x="2000"><use xlink:href="#a"/><use xlink:href="#b" x="-.004" y="8.659"/><use xlink:href="#14"/><use xlink:href="#15" y="2.171"/><use xlink:href="#16" y="4.342"/></svg><svg x="2100"><use xlink:href="#a"/><use xlink:href="#b" x="2.996" y="8.659"/><use xlink:href="#14"/><use xlink:href="#15" y="2.171"/><use xlink:href="#16" y="4.342"/><use xlink:href="#1" y="8.684"/></svg><svg x="2200"><use xlink:href="#a"/><use xlink:href="#b" x="3.996" y="8.659"/><use xlink:href="#14"/><use xlink:href="#15" y="2.171"/><use xlink:href="#16" y="4.342"/><use xlink:href="#2" y="8.684"/></svg><svg x="2300"><use xlink:href="#a"/><use xlink:href="#b" x="4.996" y="8.659"/><use xlink:href="#14"/><use xlink:href="#15" y="2.171"/><use xlink:href="#16" y="4.342"/><use xlink:href="#3" y="8.684"/></svg><svg x="2400"><use xlink:href="#a"/><use xlink:href="#b" x="5.996" y="8.659"/><use xlink:href="#14"/><use xlink:href="#15" y="2.171"/><use xlink:href="#16" y="4.342"/><use xlink:href="#4" y="8.684"/></svg><svg x="2500"><use xlink:href="#a"/><use xlink:href="#b" x="6.996" y="8.659"/><use xlink:href="#14"/><use xlink:href="#15" y="2.171"/><use xlink:href="#16" y="4.342"/><use xlink:href="#5" y="8.684"/></svg><svg x="2600"><use xlink:href="#a"/><use xlink:href="#b" x="7.996" y="8.659"/><use xlink:href="#14"/><use xlink:href="#15" y="2.171"/><use xlink:href="#16" y="4.342"/><use xlink:href="#6" y="8.684"/></svg><svg x="2700"><use xlink:href="#a"/><use xlink:href="#b" x="8.996" y="8.659"/><use xlink:href="#14"/><use xlink:href="#15" y="2.171"/><use xlink:href="#16" y="4.342"/><use xlink:href="#7" y="8.684"/></svg><svg x="2800"><use xlink:href="#a"/><use xlink:href="#b" x="9.996" y="8.659"/><use xlink:href="#14"/><use xlink:href="#15" y="2.171"/><use xlink:href="#16" y="4.342"/><use xlink:href="#7" y="8.684"/></svg><svg x="2900"><use xlink:href="#a"/><use xlink:href="#b" x="10.996" y="8.659"/><use xlink:href="#14"/><use xlink:href="#15" y="2.171"/><use xlink:href="#16" y="4.342"/><use xlink:href="#8" y="8.684"/></svg><svg x="3000"><use xlink:href="#a"/><use xlink:href="#b" x="11.996" y="8.659"/><use xlink:href="#14"/><use xlink:href="#15" y="2.171"/><use xlink:href="#16" y="4.342"/><use xlink:href="#9" y="8.684"/></svg><svg x="3100"><use xlink:href="#a"/><use xlink:href="#b" x="12.996" y="8.659"/><use xlink:href="#14"/><use xlink:href="#15" y="2.171"/><use xlink:href="#16" y="4.342"/><use xlink:href="#10" y="8.684"/></svg><svg x="3200"><use xlink:href="#a"/><use xlink:href="#b" x="13.996" y="8.659"/><use xlink:href="#14"/><use xlink:href="#15" y="2.171"/><use xlink:href="#16" y="4.342"/><use xlink:href="#11" y="8.684"/></svg><svg x="3300"><use xlink:href="#a"/><use xlink:href="#b" x="14.996" y="8.659"/><use xlink:href="#14"/><use xlink:href="#15" y="2.171"/><use xlink:href="#16" y="4.342"/><use xlink:href="#12" y="8.684"/></svg><svg x="3400"><use xlink:href="#a"/><use xlink:href="#b" x="15.996" y="8.659"/><use xlink:href="#14"/><use xlink:href="#15" y="2.171"/><use xlink:href="#16" y="4.342"/><use xlink:href="#13" y="8.684"/></svg><svg x="3500"><use xlink:href="#a"/><use xlink:href="#b" x="16.996" y="8.659"/><use xlink:href="#14"/><use xlink:href="#15" y="2.171"/><use xlink:href="#16" y="4.342"/><use xlink:href="#14" y="8.684"/></svg><svg x="3600"><use xlink:href="#a"/><use xlink:href="#b" x="17.996" y="8.659"/><use xlink:href="#14"/><use xlink:href="#15" y="2.171"/><use xlink:href="#16" y="4.342"/><use xlink:href="#14" y="8.684"/></svg><svg x="3700"><use xlink:href="#a"/><use xlink:href="#b" x="18.996" y="8.659"/><use xlink:href="#14"/><use xlink:href="#15" y="2.171"/><use xlink:href="#16" y="4.342"/><text y="10.354" class="f">$</text><text x="2.004" y="10.354" class="g">kubectl</text><text x="10.02" y="10.354" class="g">gpu-top</text><text x="18.036" y="10.354" class="g">w</text></svg><svg x="3800"><use xlink:href="#a"/><use xlink:href="#b" x="19.996" y="8.659"/><use xlink:href="#14"/><use xlink:href="#15" y="2.171"/><use xlink:href="#16" y="4.342"/><text y="10.354" class="f">$</text><text x="2.004" y="10.354" class="g">kubectl</text><text x="10.02" y="10.354" class="g">gpu-top</text><text x="18.036" y="10.354" class="g">wa</text></svg><svg x="3900"><use xlink:href="#a"/><use xlink:href="#b" x="20.996" y="8.659"/><use xlink:href="#14"/><use xlink:href="#15" y="2.171"/><use xlink:href="#16" y="4.342"/><text y="10.354" class="f">$</text><text x="2.004" y="10.354" class="g">kubectl</text><text x="10.02" y="10.354" class="g">gpu-top</text><text x="18.036" y="10.354" class="g">was</text></svg><svg x="4000"><use xlink:href="#a"/><use xlink:href="#b" x="21.996" y="8.659"/><use xlink:href="#14"/><use xlink:href="#15" y="2.171"/><use xlink:href="#16" y="4.342"/><text y="10.354" class="f">$</text><text x="2.004" y="10.354" class="g">kubectl</text><text x="10.02" y="10.354" class="g">gpu-top</text><text x="18.036" y="10.354" class="g">wast</text></svg><svg x="4100"><use xlink:href="#a"/><use xlink:href="#b" x="22.996" y="8.659"/><use xlink:href="#14"/><use xlink:href="#15" y="2.171"/><use xlink:href="#16" y="4.342"/><use xlink:href="#17" y="8.684"/></svg><svg x="4200"><use xlink:href="#a"/><use xlink:href="#b" x="23.996" y="8.659"/><use xlink:href="#14"/><use xlink:href="#15" y="2.171"/><use xlink:href="#16" y="4.342"/><use xlink:href="#17" y="8.684"/></svg><svg x="4300"><use xlink:href="#a"/><use xlink:href="#b" x="24.996" y="8.659"/><use xlink:href="#14"/><use xlink:href="#15" y="2.171"/><use xlink:href="#16" y="4.342"/><text y="10.354" class="f">$</text><text x="2.004" y="10.354" class="g">kubectl</text><text x="10.02" y="10.354" class="g">gpu-top</text><text x="18.036" y="10.354" class="g">waste</text><text x="24.048" y="10.354" class="g">-</text></svg><svg x="4400"><use xlink:href="#a"/><use xlink:href="#b" x="25.996" y="8.659"/><use xlink:href="#14"/><use xlink:href="#15" y="2.171"/><use xlink:href="#16" y="4.342"/><text y="10.354" class="f">$</text><text x="2.004" y="10.354" class="g">kubectl</text><text x="10.02" y="10.354" class="g">gpu-top</text><text x="18.036" y="10.354" class="g">waste</text><text x="24.048" y="10.354" class="g">--</text></svg><svg x="4500"><use xlink:href="#a"/><use xlink:href="#b" x="26.996" y="8.659"/><use xlink:href="#14"/><use xlink:href="#15" y="2.171"/><use xlink:href="#16" y="4.342"/><text y="10.354" class="f">$</text><text x="2.004" y="10.354" class="g">kubectl</text><text x="10.02" y="10.354" class="g">gpu-top</text><text x="18.036" y="10.354" class="g">waste</text><text x="24.048" y="10.354" class="g">--d</text></svg><svg x="4600"><use xlink:href="#a"/><use xlink:href="#b" x="27.996" y="8.659"/><use xlink:href="#14"/><use xlink:href="#15" y="2.171"/><use xlink:href="#16" y="4.342"/><text y="10.354" class="f">$</text><text x="2.004" y="10.354" class="g">kubectl</text><text x="10.02" y="10.354" class="g">gpu-top</text><text x="18.036" y="10.354" class="g">waste</text><text x="24.048" y="10.354" class="g">--du</text></svg><svg x="4700"><use xlink:href="#a"/><use xlink:href="#b" x="28.996" y="8.659"/><use xlink:href="#14"/><use xlink:href="#15" y="2.171"/><use xlink:href="#16" y="4.342"/><text y="10.354" class="f">$</text><text x="2.004" y="10.354" class="g">kubectl</text><text x="10.02" y="10.354" class="g">gpu-top</text><text x="18.036" y="10.354" class="g">waste</text><text x="24.048" y="10.354" class="g">--dur</text></svg><svg x="4800"><use xlink:href="#a"/><use xlink:href="#b" x="29.996" y="8.659"/><use xlink:href="#14"/><use xlink:href="#15" y="2.171"/><use xlink:href="#16" y="4.342"/><text y="10.354" class="f">$</text><text x="2.004" y="10.354" class="g">kubectl</text><text x="10.02" y="10.354" class="g">gpu-top</text><text x="18.036" y="10.354" class="g">waste</text><text x="24.048" y="10.354" class="g">--dura</text></svg><svg x="4900"><use xlink:href="#a"/><use xlink:href="#b" x="30.996" y="8.659"/><use xlink:href="#14"/><use xlink:href="#15" y="2.171"/><use xlink:href="#16" y="4.342"/><text y="10.354" class="f">$</text><text x="2.004" y="10.354" class="g">kubectl</text><text x="10.02" y="10.354" class="g">gpu-top</text><text x="18.036" y="10.354" class="g">waste</text><text x="24.048" y="10.354" class="g">--durat</text></svg><svg x="5000"><use xlink:href="#a"/><use xlink:href="#b" x="31.996" y="8.659"/><use xlink:href="#14"/><use xlink:href="#15" y="2.171"/><use xlink:href="#16" y="4.342"/><text y="10.354" class="f">$</text><text x="2.004" y="10.354" class="g">kubectl</text><text x="10.02" y="10.354" class="g">gpu-top</text><text x="18.036" y="10.354" class="g">waste</text><text x="24.048" y="10.354" class="g">--durati</text></svg><svg x="5100"><use xlink:href="#a"/><use xlink:href="#b" x="32.996" y="8.659"/><use xlink:href="#14"/><use xlink:href="#15" y="2.171"/><use xlink:href="#16" y="4.342"/><text y="10.354" class="f">$</text><text x="2.004" y="10.354" class="g">kubectl</text><text x="10.02" y="10.354" class="g">gpu-top</text><text x="18.036" y="10.354" class="g">waste</text><text x="24.048" y="10.354" class="g">--duratio</text></svg><svg x="5200"><use xlink:href="#a"/><use xlink:href="#b" x="33.996" y="8.659"/><use xlink:href="#14"/><use xlink:href="#15" y="2.171"/><use xlink:href="#16" y="4.342"/><use xlink:href="#18" y="8.684"/></svg><svg x="5300"><use xlink:href="#a"/><use xlink:href="#b" x="34.996" y="8.659"/><use xlink:href="#14"/><use xlink:href="#15" y="2.171"/><use xlink:href="#16" y="4.342"/><use xlink:href="#18" y="8.684"/></svg><svg x="5400"><use xlink:href="#a"/><use xlink:href="#b" x="35.996" y="8.659"/><use xlink:href="#14"/><use xlink:href="#15" y="2.171"/><use xlink:href="#16" y="4.342"/><text y="10.354" class="f">$</text><text x="2.004" y="10.354" class="g">kubectl</text><text x="10.02" y="10.354" class="g">gpu-top</text><text x="18.036" y="10.354" class="g">waste</text><text x="24.048" y="10.354" class="g">--duration</text><text x="35.07" y="10.354" class="g">1</text></svg><svg x="5500"><use xlink:href="#a"/><use xlink:href="#b" x="36.996" y="8.659"/><use xlink:href="#14"/><use xlink:href="#15" y="2.171"/><use xlink:href="#16" y="4.342"/><text y="10.354" class="f">$</text><text x="2.004" y="10.354" class="g">kubectl</text><text x="10.02" y="10.354" class="g">gpu-top</text><text x="18.036" y="10.354" class="g">waste</text><text x="24.048" y="10.354" class="g">--duration</text><text x="35.07" y="10.354" class="g">15</text></svg><svg x="5600"><use xlink:href="#a"/><use xlink:href="#b" x="37.996" y="8.659"/><use xlink:href="#14"/><use xlink:href="#15" y="2.171"/><use xlink:href="#16" y="4.342"/><use xlink:href="#19" y="8.684"/></svg><svg x="5700"><use xlink:href="#a"/><use xlink:href="#b" x="-.004" y="10.83"/><use xlink:href="#14"/><use xlink:href="#15" y="2.171"/><use xlink:href="#16" y="4.342"/><use xlink:href="#19" y="8.684"/></svg><svg x="5800"><use xlink:href="#a"/><use xlink:href="#b" x="45.996" y="10.83"/><use xlink:href="#14"/><use xlink:href="#15" y="2.171"/><use xlink:href="#16" y="4.342"/><use xlink:href="#19" y="8.684"/><use xlink:href="#20" y="10.855"/></svg><svg x="5900"><use xlink:href="#a"/><use xlink:href="#b" x="-.004" y="13.001"/><use xlink:href="#14"/><use xlink:href="#15" y="2.171"/><use xlink:href="#16" y="4.342"/><use xlink:href="#19" y="8.684"/><use xlink:href="#20" y="10.855"/></svg><svg x="6000"><use xlink:href="#a"/><use xlink:href="#b" x="-.004" y="26.027"/><use xlink:href="#14"/><use xlink:href="#15" y="2.171"/><use xlink:href="#16" y="4.342"/><use xlink:href="#19" y="8.684"/><use xlink:href="#20" y="10.855"/><use xlink:href="#21" y="13.026"/><use xlink:href="#22" y="17.368"/><use xlink:href="#23" y="19.539"/><use xlink:href="#24" y="21.71"/><use xlink:href="#25" y="23.881"/></svg><svg x="6100"><use xlink:href="#a"/><use xlink:href="#b" x="-.004" y="28.198"/><use xlink:href="#14"/><use xlink:href="#15" y="2.171"/><use xlink:href="#16" y="4.342"/><use xlink:href="#19" y="8.684"/><use xlink:href="#20" y="10.855"/><use xlink:href="#21" y="13.026"/><use xlink:href="#22" y="17.368"/><use xlink:href="#23" y="19.539"/><use xlink:href="#24" y="21.71"/><use xlink:href="#25" y="23.881"/></svg></svg></g></g></svg></svg>